<svg width="96" height="96" viewBox="0 0 96 96" fill="none" xmlns="http://www.w3.org/2000/svg">
<path d="M0 38.4C0 24.9587 0 18.2381 2.61584 13.1042C4.9168 8.58834 8.58834 4.9168 13.1042 2.61584C18.2381 0 24.9587 0 38.4 0H57.6C71.0413 0 77.7619 0 82.8958 2.61584C87.4117 4.9168 91.0832 8.58834 93.3842 13.1042C96 18.2381 96 24.9587 96 38.4V57.6C96 71.0413 96 77.7619 93.3842 82.8958C91.0832 87.4117 87.4117 91.0832 82.8958 93.3842C77.7619 96 71.0413 96 57.6 96H38.4C24.9587 96 18.2381 96 13.1042 93.3842C8.58834 91.0832 4.9168 87.4117 2.61584 82.8958C0 77.7619 0 71.0413 0 57.6V38.4Z" fill="url(#paint0_linear_1164_14)"/>
<path d="M6 34.8C6 24.7191 6 19.6786 7.96188 15.8282C9.6876 12.4413 12.4413 9.6876 15.8282 7.96188C19.6786 6 24.7191 6 34.8 6H61.2C71.2809 6 76.3214 6 80.1718 7.96188C83.5587 9.6876 86.3124 12.4413 88.0381 15.8282C90 19.6786 90 24.7191 90 34.8V61.2C90 71.2809 90 76.3214 88.0381 80.1718C86.3124 83.5587 83.5587 86.3124 80.1718 88.0381C76.3214 90 71.2809 90 61.2 90H34.8C24.7191 90 19.6786 90 15.8282 88.0381C12.4413 86.3124 9.6876 83.5587 7.96188 80.1718C6 76.3214 6 71.2809 6 61.2V34.8Z" fill="url(#paint1_linear_1164_14)"/>
<path d="M72 18C72 16.3431 73.3431 15 75 15H78C79.6569 15 81 16.3431 81 18V21C81 22.6569 79.6569 24 78 24H75C73.3431 24 72 22.6569 72 21V18Z" fill="#53351F"/>
<path fill-rule="evenodd" clip-rule="evenodd" d="M48 84C67.8822 84 84 67.8822 84 48C84 28.1177 67.8822 12 48 12C28.1177 12 12 28.1177 12 48C12 67.8822 28.1177 84 48 84ZM48 51C49.6569 51 51 49.6569 51 48C51 46.3431 49.6569 45 48 45C46.3431 45 45 46.3431 45 48C45 49.6569 46.3431 51 48 51Z" fill="#1D1D1D"/>
<path fill-rule="evenodd" clip-rule="evenodd" d="M48 81C66.2254 81 81 66.2254 81 48C81 29.7746 66.2254 15 48 15C29.7746 15 15 29.7746 15 48C15 66.2254 29.7746 81 48 81ZM54 48C54 51.3137 51.3137 54 48 54C44.6863 54 42 51.3137 42 48C42 44.6863 44.6863 42 48 42C51.3137 42 54 44.6863 54 48ZM84 48C84 67.8822 67.8822 84 48 84C28.1177 84 12 67.8822 12 48C12 28.1177 28.1177 12 48 12C67.8822 12 84 28.1177 84 48ZM51 48C51 49.6569 49.6569 51 48 51C46.3431 51 45 49.6569 45 48C45 46.3431 46.3431 45 48 45C49.6569 45 51 46.3431 51 48Z" fill="white" fill-opacity="0.05"/>
<path fill-rule="evenodd" clip-rule="evenodd" d="M48 75C62.9117 75 75 62.9117 75 48C75 33.0883 62.9117 21 48 21C33.0883 21 21 33.0883 21 48C21 62.9117 33.0883 75 48 75ZM48 78C64.5685 78 78 64.5685 78 48C78 31.4315 64.5685 18 48 18C31.4315 18 18 31.4315 18 48C18 64.5685 31.4315 78 48 78Z" fill="white" fill-opacity="0.05"/>
<path fill-rule="evenodd" clip-rule="evenodd" d="M48 69C59.598 69 69 59.598 69 48C69 36.402 59.598 27 48 27C36.402 27 27 36.402 27 48C27 59.598 36.402 69 48 69ZM48 72C61.2548 72 72 61.2548 72 48C72 34.7452 61.2548 24 48 24C34.7452 24 24 34.7452 24 48C24 61.2548 34.7452 72 48 72Z" fill="white" fill-opacity="0.05"/>
<path fill-rule="evenodd" clip-rule="evenodd" d="M48 63C56.2843 63 63 56.2843 63 48C63 39.7157 56.2843 33 48 33C39.7157 33 33 39.7157 33 48C33 56.2843 39.7157 63 48 63ZM48 66C57.9411 66 66 57.9411 66 48C66 38.0589 57.9411 30 48 30C38.0589 30 30 38.0589 30 48C30 57.9411 38.0589 66 48 66Z" fill="white" fill-opacity="0.05"/>
<path fill-rule="evenodd" clip-rule="evenodd" d="M48 60C54.6274 60 60 54.6274 60 48C60 41.3726 54.6274 36 48 36C41.3726 36 36 41.3726 36 48C36 54.6274 41.3726 60 48 60ZM48 51C49.6569 51 51 49.6569 51 48C51 46.3431 49.6569 45 48 45C46.3431 45 45 46.3431 45 48C45 49.6569 46.3431 51 48 51Z" fill="#762FFF"/>
<path d="M72 15C72 13.3431 73.3431 12 75 12H78C79.6569 12 81 13.3431 81 15V18C81 19.6569 79.6569 21 78 21H75C73.3431 21 72 19.6569 72 18V15Z" fill="#68452C"/>
<path fill-rule="evenodd" clip-rule="evenodd" d="M74.9999 60.8787V21H77.9999V62.1213L71.5606 68.5607L69.4393 66.4393L74.9999 60.8787Z" fill="#D0D0D0"/>
<path d="M51 48C51 49.6569 49.6569 51 48 51C46.3431 51 45 49.6569 45 48C45 46.3431 46.3431 45 48 45C49.6569 45 51 46.3431 51 48Z" fill="url(#paint2_radial_1164_14)"/>
<defs>
<linearGradient id="paint0_linear_1164_14" x1="48" y1="0" x2="48" y2="96" gradientUnits="userSpaceOnUse">
<stop stop-color="#9E9E9E"/>
<stop offset="1" stop-color="#525151"/>
</linearGradient>
<linearGradient id="paint1_linear_1164_14" x1="48" y1="6" x2="48" y2="90" gradientUnits="userSpaceOnUse">
<stop stop-color="#E2E2E2"/>
<stop offset="1" stop-color="#9F9F9F"/>
</linearGradient>
<radialGradient id="paint2_radial_1164_14" cx="0" cy="0" r="1" gradientUnits="userSpaceOnUse" gradientTransform="translate(48 48) rotate(90) scale(3)">
<stop stop-color="#B8B8B8"/>
<stop offset="1" stop-color="#999999"/>
</radialGradient>
</defs>
</svg>
